<?xml version="1.0" encoding="iso-8859-1"?>
<!-- Generator: Adobe Illustrator 19.0.0, SVG Export Plug-In . SVG Version: 6.00 Build 0)  -->
<svg version="1.1" id="Capa_1" xmlns="http://www.w3.org/2000/svg" xmlns:xlink="http://www.w3.org/1999/xlink" x="0px" y="0px"
	 viewBox="0 0 480 480" style="enable-background:new 0 0 480 480;" xml:space="preserve">
<g>
	
		<linearGradient id="SVGID_1_" gradientUnits="userSpaceOnUse" x1="-26.875" y1="556.295" x2="-26.875" y2="619.773" gradientTransform="matrix(8 0 0 -8 455 4941)">
		<stop  offset="0" style="stop-color:#006DF0"/>
		<stop  offset="1" style="stop-color:#00E7F0"/>
	</linearGradient>
	<path style="fill:url(#SVGID_1_);" d="M240,144c-39.764,0-72-32.235-72-72s32.236-72,72-72s72,32.235,72,72
		C311.952,111.744,279.744,143.952,240,144z M240,16c-30.928,0-56,25.072-56,56s25.072,56,56,56s56-25.072,56-56
		C295.965,41.087,270.913,16.035,240,16z"/>
	
		<linearGradient id="SVGID_2_" gradientUnits="userSpaceOnUse" x1="-26.875" y1="556.295" x2="-26.875" y2="619.773" gradientTransform="matrix(8 0 0 -8 455 4941)">
		<stop  offset="0" style="stop-color:#006DF0"/>
		<stop  offset="1" style="stop-color:#00E7F0"/>
	</linearGradient>
	<path style="fill:url(#SVGID_2_);" d="M240,480c-39.764,0-72-32.236-72-72s32.236-72,72-72s72,32.236,72,72
		C311.952,447.744,279.744,479.952,240,480z M240,352c-30.928,0-56,25.072-56,56s25.072,56,56,56s56-25.072,56-56
		C295.965,377.087,270.913,352.035,240,352z"/>
	
		<linearGradient id="SVGID_3_" gradientUnits="userSpaceOnUse" x1="-26.875" y1="556.295" x2="-26.875" y2="619.773" gradientTransform="matrix(8 0 0 -8 455 4941)">
		<stop  offset="0" style="stop-color:#006DF0"/>
		<stop  offset="1" style="stop-color:#00E7F0"/>
	</linearGradient>
	<path style="fill:url(#SVGID_3_);" d="M240,312c-39.764,0-72-32.236-72-72s32.236-72,72-72s72,32.236,72,72
		C311.952,279.744,279.744,311.952,240,312z M240,184c-30.928,0-56,25.072-56,56s25.072,56,56,56s56-25.072,56-56
		C295.965,209.087,270.913,184.035,240,184z"/>
</g>
<g>
	
		<linearGradient id="SVGID_4_" gradientUnits="userSpaceOnUse" x1="-5.875" y1="556.295" x2="-5.875" y2="619.773" gradientTransform="matrix(8 0 0 -8 455 4941)">
		<stop  offset="0" style="stop-color:#006DF0"/>
		<stop  offset="1" style="stop-color:#00E7F0"/>
	</linearGradient>
	<path style="fill:url(#SVGID_4_);" d="M408,144c-39.764,0-72-32.235-72-72s32.236-72,72-72s72,32.235,72,72
		C479.952,111.744,447.744,143.952,408,144z M408,16c-30.928,0-56,25.072-56,56s25.072,56,56,56s56-25.072,56-56
		C463.965,41.087,438.913,16.035,408,16z"/>
	
		<linearGradient id="SVGID_5_" gradientUnits="userSpaceOnUse" x1="-5.875" y1="556.295" x2="-5.875" y2="619.773" gradientTransform="matrix(8 0 0 -8 455 4941)">
		<stop  offset="0" style="stop-color:#006DF0"/>
		<stop  offset="1" style="stop-color:#00E7F0"/>
	</linearGradient>
	<path style="fill:url(#SVGID_5_);" d="M408,480c-39.764,0-72-32.236-72-72s32.236-72,72-72s72,32.236,72,72
		C479.952,447.744,447.744,479.952,408,480z M408,352c-30.928,0-56,25.072-56,56s25.072,56,56,56s56-25.072,56-56
		C463.965,377.087,438.913,352.035,408,352z"/>
	
		<linearGradient id="SVGID_6_" gradientUnits="userSpaceOnUse" x1="-5.875" y1="556.295" x2="-5.875" y2="619.773" gradientTransform="matrix(8 0 0 -8 455 4941)">
		<stop  offset="0" style="stop-color:#006DF0"/>
		<stop  offset="1" style="stop-color:#00E7F0"/>
	</linearGradient>
	<path style="fill:url(#SVGID_6_);" d="M408,312c-39.764,0-72-32.236-72-72s32.236-72,72-72s72,32.236,72,72
		C479.952,279.744,447.744,311.952,408,312z M408,184c-30.928,0-56,25.072-56,56s25.072,56,56,56s56-25.072,56-56
		C463.965,209.087,438.913,184.035,408,184z"/>
	
		<linearGradient id="SVGID_7_" gradientUnits="userSpaceOnUse" x1="-47.875" y1="556.295" x2="-47.875" y2="619.773" gradientTransform="matrix(8 0 0 -8 455 4941)">
		<stop  offset="0" style="stop-color:#006DF0"/>
		<stop  offset="1" style="stop-color:#00E7F0"/>
	</linearGradient>
	<path style="fill:url(#SVGID_7_);" d="M72,144c-39.765,0-72-32.235-72-72S32.235,0,72,0s72,32.235,72,72
		C143.952,111.744,111.744,143.952,72,144z M72,16c-30.928,0-56,25.072-56,56s25.072,56,56,56s56-25.072,56-56
		C127.965,41.087,102.913,16.035,72,16z"/>
	
		<linearGradient id="SVGID_8_" gradientUnits="userSpaceOnUse" x1="-47.875" y1="556.295" x2="-47.875" y2="619.773" gradientTransform="matrix(8 0 0 -8 455 4941)">
		<stop  offset="0" style="stop-color:#006DF0"/>
		<stop  offset="1" style="stop-color:#00E7F0"/>
	</linearGradient>
	<path style="fill:url(#SVGID_8_);" d="M72,480c-39.765,0-72-32.236-72-72s32.235-72,72-72s72,32.236,72,72
		C143.952,447.744,111.744,479.952,72,480z M72,352c-30.928,0-56,25.072-56,56s25.072,56,56,56s56-25.072,56-56
		C127.965,377.087,102.913,352.035,72,352z"/>
	
		<linearGradient id="SVGID_9_" gradientUnits="userSpaceOnUse" x1="-47.875" y1="556.295" x2="-47.875" y2="619.773" gradientTransform="matrix(8 0 0 -8 455 4941)">
		<stop  offset="0" style="stop-color:#006DF0"/>
		<stop  offset="1" style="stop-color:#00E7F0"/>
	</linearGradient>
	<path style="fill:url(#SVGID_9_);" d="M72,312c-39.765,0-72-32.236-72-72s32.235-72,72-72s72,32.236,72,72
		C143.952,279.744,111.744,311.952,72,312z M72,184c-30.928,0-56,25.072-56,56s25.072,56,56,56s56-25.072,56-56
		C127.965,209.087,102.913,184.035,72,184z"/>
</g>
<g>
</g>
<g>
</g>
<g>
</g>
<g>
</g>
<g>
</g>
<g>
</g>
<g>
</g>
<g>
</g>
<g>
</g>
<g>
</g>
<g>
</g>
<g>
</g>
<g>
</g>
<g>
</g>
<g>
</g>
</svg>
